<?xml version="1.0" encoding="UTF-8" standalone="no"?>
<svg id="Layer_1" xmlns="http://www.w3.org/2000/svg" viewBox="0 0 16 16">
 <defs>
  <style>.cls-1{fill:#e95420;}.cls-2{fill:#fff;}</style>
 </defs>
 <rect width="16" class="cls-1" height="16"/>
 <circle cy="7.66" cx="3.31" r="1.77" class="cls-2"/>
 <circle cy="3.77" cx="10.69" r="1.77" class="cls-2"/>
 <path class="cls-2" d="m7.31 12.22c-1.28-0.27-2.34-1.09-2.94-2.24-0.47 0.21-1 0.28-1.52 0.19 0.73 1.78 2.26 3.08 4.15 3.48 0.41 0.09 0.84 0.13 1.26 0.13-0.33-0.43-0.51-0.94-0.52-1.48-0.15-0.02-0.29-0.04-0.43-0.07z"/>
 <circle cy="12.23" cx="10.29" r="1.77" class="cls-2"/>
 <path class="cls-2" d="m12.76 11.58c0.55-0.69 0.94-1.52 1.13-2.39 0.33-1.52 0.02-3.12-0.84-4.41-0.2 0.48-0.55 0.89-1 1.17 0.48 0.9 0.62 1.94 0.41 2.94-0.1 0.49-0.29 0.95-0.55 1.37 0.42 0.34 0.71 0.8 0.85 1.32z"/>
 <path class="cls-2" d="m3.18 5.12s0.09 0 0.13 0c0.18 0 0.36 0.02 0.53 0.06 0.29 0.06 0.56 0.17 0.81 0.33 0.8-1.15 2.08-1.84 3.48-1.86 0-0.13 0.03-0.27 0.05-0.4 0.08-0.38 0.25-0.73 0.48-1.04-2.23-0.18-4.39 0.97-5.5 2.92z"/>
</svg>
